<svg width="62" height="62" viewBox="0 0 62 62" fill="none" xmlns="http://www.w3.org/2000/svg">
<path d="M45.4815 21C44.2339 21 43.2009 24.6056 43.0007 29.3333H18.9993C18.7991 24.6056 17.7661 21 16.5185 21C15.1276 21 14 25.4772 14 31C14 36.5229 15.1276 41 16.5185 41C17.7661 41 18.7991 37.3943 18.9993 32.6666H43.0007C43.2009 37.3944 44.2339 41 45.4815 41C46.8724 41 48 36.5228 48 31C48 25.4772 46.8724 21 45.4815 21Z" fill="white"/>
<path d="M57.1982 16.383C53.6425 10.0102 47.8859 5.15194 41.0062 2.7179C34.1264 0.283872 26.5954 0.44097 19.8232 3.15978C13.0509 5.87859 7.50191 10.9727 4.21512 17.4882C0.928329 24.0037 0.129159 31.4939 1.96725 38.5562C3.80533 45.6185 8.15464 51.7687 14.2008 55.8552C20.2469 59.9417 27.5753 61.6842 34.8137 60.7565C42.0521 59.8289 48.7042 56.2946 53.5243 50.8154C58.3445 45.3363 61.0023 38.2881 61 30.9905C60.9984 25.8769 59.6897 20.8485 57.1982 16.383ZM30.9905 58.5964C23.7171 58.5593 16.7554 55.639 11.632 50.4761C6.50874 45.3132 3.64215 38.3292 3.66097 31.0557C3.67979 23.7823 6.58248 16.8131 11.7324 11.6768C16.8824 6.54053 23.8592 3.65633 31.1327 3.65681C38.4062 3.65728 45.3826 6.54238 50.5319 11.6794C55.6812 16.8163 58.5829 23.7858 58.6008 31.0593C58.6187 38.3328 55.7512 45.3164 50.6272 50.4787C45.5032 55.6409 38.5411 58.5602 31.2677 58.5964C31.1753 58.5969 31.0829 58.5969 30.9905 58.5964Z" fill="white"/>
<path d="M30.8098 61C25.0836 61.0027 19.4752 59.3844 14.6409 56.3346C14.3995 56.1816 14.2132 55.9564 14.1088 55.6915L14.0937 55.6526C13.9887 55.3901 13.9715 55.101 14.0444 54.828C14.1174 54.555 14.2768 54.3125 14.499 54.1363C14.7138 53.9569 14.9809 53.8508 15.261 53.8338C15.5411 53.8168 15.8193 53.8897 16.0545 54.0418C21.1929 57.2919 27.2721 58.7537 33.3373 58.1975C39.4025 57.6414 45.1099 55.0987 49.563 50.9691C54.016 46.8394 56.9622 41.3568 57.9389 35.3825C58.9156 29.4081 57.8673 23.2806 54.9588 17.9626C54.8225 17.7188 54.7686 17.4379 54.805 17.1614C54.8415 16.8848 54.9664 16.6272 55.1614 16.4265C55.3539 16.2183 55.6087 16.0771 55.8881 16.0237C56.1675 15.9703 56.4568 16.0076 56.7133 16.1299L56.751 16.1474C57.0083 16.2672 57.2207 16.465 57.3577 16.7124C59.8473 21.2813 61.1002 26.4143 60.9937 31.6088C60.8873 36.8034 59.4251 41.8815 56.7504 46.3458C54.0757 50.8102 50.2802 54.5077 45.7354 57.0765C41.1906 59.6453 36.0524 60.9973 30.8239 61H30.8098Z" fill="#DBFF00"/>
</svg>
